<?xml version="1.0" encoding="UTF-8"?>
<svg xmlns="http://www.w3.org/2000/svg" xmlns:xlink="http://www.w3.org/1999/xlink" width="595pt" height="842pt" viewBox="0 0 595 842" version="1.1">
<g id="surface1">
<path style="fill:none;stroke-width:2;stroke-linecap:butt;stroke-linejoin:miter;stroke:rgb(0%,0%,0%);stroke-opacity:1;stroke-miterlimit:4;" d="M 0 1.09375 L 5952.773438 1.09375 L 5952.773438 8420 L 0 8420 Z M 0 1.09375 " transform="matrix(0.1,0,0,-0.1,0,842)"/>
<path style=" stroke:none;fill-rule:evenodd;fill:rgb(100%,78.514099%,0%);fill-opacity:1;" d="M 441.058594 509.710938 L 425.734375 497.148438 L 431.660156 520.3125 C 434.921875 516.902344 438.058594 513.363281 441.058594 509.710938 Z M 472.320313 454.542969 L 409.058594 431.960938 L 422.917969 486.140625 L 445.980469 503.441406 C 457.0625 488.695313 466 472.242188 472.320313 454.542969 Z M 483.066406 392.054688 L 398.867188 392.125 L 407.578125 426.183594 L 474.835938 446.980469 C 480.1875 429.667969 483.066406 411.273438 483.066406 392.210938 C 483.066406 392.15625 483.066406 392.105469 483.066406 392.054688 Z M 472.214844 329.582031 L 390.378906 358.953125 L 397.765625 387.820313 L 482.890625 384.085938 C 482.066406 365.03125 478.367188 346.722656 472.214844 329.582031 Z M 440.855469 274.464844 L 364.847656 336.988281 L 384.761719 336.988281 L 389.320313 354.8125 L 469.355469 322.136719 C 462.257813 304.773438 452.601563 288.726563 440.855469 274.464844 Z M 392.816406 233.09375 L 330.71875 336.988281 L 359.253906 336.988281 L 435.660156 268.425781 C 423.261719 254.617188 408.820313 242.683594 392.816406 233.09375 Z M 333.628906 210.339844 L 308.621094 336.988281 L 327.574219 336.988281 L 385.890625 229.144531 C 369.761719 220.402344 352.191406 213.984375 333.628906 210.339844 Z M 270.234375 208.886719 L 289.4375 336.988281 L 306.171875 336.988281 L 325.773438 208.972656 C 316.625 207.582031 307.253906 206.863281 297.71875 206.863281 C 288.378906 206.863281 279.203125 207.550781 270.234375 208.886719 Z M 210.054688 228.867188 L 268.082031 336.988281 L 286.992188 336.988281 L 262.378906 210.226563 C 243.800781 213.816406 226.210938 220.179688 210.054688 228.867188 Z M 160.160156 267.992188 L 236.566406 336.988281 L 264.949219 336.988281 L 203.117188 232.796875 C 187.078125 242.335938 172.601563 254.226563 160.160156 267.992188 Z M 126.296875 321.601563 L 206.160156 354.496094 L 210.640625 336.988281 L 231.011719 336.988281 L 154.945313 274.019531 C 143.15625 288.246094 133.449219 304.261719 126.296875 321.601563 Z M 112.570313 383.503906 L 197.714844 387.507813 L 205.101563 358.640625 L 123.417969 329.035156 C 117.207031 346.15625 113.449219 364.457031 112.570313 383.503906 Z M 120.425781 446.425781 L 187.925781 425.785156 L 196.617188 391.808594 L 112.371094 391.472656 C 112.367188 391.71875 112.367188 391.964844 112.367188 392.210938 C 112.367188 411.070313 115.1875 429.277344 120.425781 446.425781 Z M 149.105469 502.976563 L 172.671875 485.410156 L 186.453125 431.539063 L 122.921875 453.996094 C 129.183594 471.714844 138.066406 488.195313 149.105469 502.976563 Z M 163.75 520.289063 L 169.878906 496.335938 L 154.007813 509.261719 C 157.109375 513.066406 160.359375 516.742188 163.75 520.289063 Z M 163.75 520.289063 "/>
<path style="fill-rule:evenodd;fill:rgb(94.139099%,48.631287%,0%);fill-opacity:1;stroke-width:29.999;stroke-linecap:butt;stroke-linejoin:miter;stroke:rgb(10.594177%,9.812927%,9.423828%);stroke-opacity:1;stroke-miterlimit:4;" d="M 2364.765625 4545.15625 L 3589.257813 4545.15625 L 4201.523438 2151.757813 L 1752.5 2151.757813 Z M 2364.765625 4545.15625 " transform="matrix(0.1,0,0,-0.1,0,842)"/>
<path style="fill-rule:evenodd;fill:rgb(89.0625%,0%,8.616638%);fill-opacity:1;stroke-width:29.999;stroke-linecap:butt;stroke-linejoin:miter;stroke:rgb(10.594177%,9.812927%,9.423828%);stroke-opacity:1;stroke-miterlimit:4;" d="M 2364.765625 4545.15625 L 3589.257813 4545.15625 L 4201.523438 2151.757813 L 1752.5 2151.757813 Z M 2106.40625 5050.117188 L 3847.617188 5050.117188 L 4718.242188 1646.796875 L 1235.78125 1646.796875 Z M 2106.40625 5050.117188 " transform="matrix(0.1,0,0,-0.1,0,842)"/>
<path style=" stroke:none;fill-rule:evenodd;fill:rgb(10.594177%,9.812927%,9.423828%);fill-opacity:1;" d="M 297.699219 423.503906 C 343.898438 423.503906 381.351563 460.953125 381.351563 507.152344 C 381.351563 553.351563 343.902344 590.804688 297.699219 590.804688 C 251.5 590.804688 214.050781 553.351563 214.050781 507.152344 C 214.050781 460.953125 251.5 423.503906 297.699219 423.503906 Z M 297.699219 423.503906 "/>
<path style=" stroke:none;fill-rule:evenodd;fill:rgb(100%,100%,100%);fill-opacity:1;" d="M 297.699219 494.164063 C 304.875 494.164063 310.6875 499.980469 310.6875 507.152344 C 310.6875 514.328125 304.875 520.140625 297.699219 520.140625 C 290.527344 520.140625 284.714844 514.328125 284.714844 507.152344 C 284.714844 499.980469 290.527344 494.164063 297.699219 494.164063 Z M 297.699219 494.164063 "/>
<path style="fill-rule:evenodd;fill:rgb(100%,92.576599%,0%);fill-opacity:1;stroke-width:29.999;stroke-linecap:butt;stroke-linejoin:round;stroke:rgb(89.0625%,0%,8.616638%);stroke-opacity:1;stroke-miterlimit:4;" d="M 2616.171875 2756.484375 L 2800.15625 3030.078125 L 3184.570313 3030.078125 L 3347.304688 2761.210938 L 3104.375 2959.335938 L 2877.929688 2959.335938 Z M 3568.984375 2987.617188 L 3295.390625 3171.601563 L 3295.390625 3556.015625 L 3564.257813 3718.75 L 3366.132813 3475.820313 L 3366.132813 3249.375 Z M 3337.851563 3940.429688 L 3153.90625 3666.835938 L 2769.453125 3666.835938 L 2606.757813 3935.703125 L 2849.648438 3737.578125 L 3076.09375 3737.578125 Z M 2385.039063 3709.296875 L 2658.632813 3525.351563 L 2658.632813 3140.898438 L 2389.765625 2978.164063 L 2587.851563 3221.09375 L 2587.890625 3447.539063 Z M 2385.039063 3709.296875 " transform="matrix(0.1,0,0,-0.1,0,842)"/>
<path style="fill-rule:evenodd;fill:rgb(100%,92.576599%,0%);fill-opacity:1;stroke-width:29.999;stroke-linecap:butt;stroke-linejoin:round;stroke:rgb(89.0625%,0%,8.616638%);stroke-opacity:1;stroke-miterlimit:4;" d="M 2567.382813 3476.015625 L 2250.625 3348.476563 L 2566.679688 3195.117188 L 2587.890625 3221.09375 L 2587.890625 3447.539063 Z M 2567.382813 3476.015625 " transform="matrix(0.1,0,0,-0.1,0,842)"/>
<path style="fill-rule:evenodd;fill:rgb(100%,92.576599%,0%);fill-opacity:1;stroke-width:29.999;stroke-linecap:butt;stroke-linejoin:round;stroke:rgb(89.0625%,0%,8.616638%);stroke-opacity:1;stroke-miterlimit:4;" d="M 3103.90625 3758.28125 L 2975.820313 4074.84375 L 2823.007813 3758.554688 L 2849.023438 3737.382813 L 3075.46875 3737.734375 Z M 3103.90625 3758.28125 " transform="matrix(0.1,0,0,-0.1,0,842)"/>
<path style="fill-rule:evenodd;fill:rgb(100%,92.576599%,0%);fill-opacity:1;stroke-width:29.999;stroke-linecap:butt;stroke-linejoin:round;stroke:rgb(89.0625%,0%,8.616638%);stroke-opacity:1;stroke-miterlimit:4;" d="M 3387.460938 3223.59375 L 3703.398438 3353.203125 L 3386.328125 3504.453125 L 3365.3125 3478.359375 L 3366.796875 3251.914063 Z M 3387.460938 3223.59375 " transform="matrix(0.1,0,0,-0.1,0,842)"/>
<path style="fill-rule:evenodd;fill:rgb(100%,92.576599%,0%);fill-opacity:1;stroke-width:29.999;stroke-linecap:butt;stroke-linejoin:round;stroke:rgb(89.0625%,0%,8.616638%);stroke-opacity:1;stroke-miterlimit:4;" d="M 2848.164063 2939.257813 L 2974.6875 2622.070313 L 3129.023438 2937.65625 L 3103.125 2958.90625 L 2876.679688 2959.648438 Z M 2848.164063 2939.257813 " transform="matrix(0.1,0,0,-0.1,0,842)"/>
<path style="fill-rule:evenodd;fill:rgb(100%,92.576599%,0%);fill-opacity:1;stroke-width:29.999;stroke-linecap:butt;stroke-linejoin:round;stroke:rgb(89.0625%,0%,8.616638%);stroke-opacity:1;stroke-miterlimit:4;" d="M 2800.15625 3030.078125 L 3184.570313 3030.078125 L 3193.984375 3014.53125 L 3235.703125 2945.546875 L 3493.203125 2837.382813 L 3400.351563 3101.015625 L 3295.390625 3171.601563 L 3295.390625 3556.015625 L 3310.742188 3565.3125 L 3381.71875 3608.242188 L 3489.6875 3863.085938 L 3223.398438 3770.195313 L 3175.9375 3699.609375 L 3153.90625 3666.835938 L 2769.453125 3666.835938 L 2760.078125 3682.34375 L 2718.085938 3751.679688 L 2461.09375 3859.84375 L 2553.984375 3595.703125 L 2626.09375 3547.226563 L 2658.632813 3525.3125 L 2658.632813 3140.898438 L 2643.632813 3131.835938 L 2569.570313 3087.03125 L 2461.914063 2836.25 L 2732.265625 2929.101563 L 2777.8125 2996.875 Z M 2800.390625 3597.304688 L 3153.945313 3597.304688 C 3192.929688 3597.304688 3224.804688 3565.390625 3224.804688 3526.445313 L 3224.804688 3172.890625 C 3224.804688 3133.90625 3192.929688 3102.03125 3153.945313 3102.03125 L 2800.390625 3102.03125 C 2761.40625 3102.03125 2729.53125 3133.90625 2729.53125 3172.890625 L 2729.53125 3526.445313 C 2729.53125 3565.390625 2761.40625 3597.304688 2800.390625 3597.304688 Z M 2800.390625 3597.304688 " transform="matrix(0.1,0,0,-0.1,0,842)"/>
<path style=" stroke:none;fill-rule:evenodd;fill:rgb(0%,61.914063%,87.889099%);fill-opacity:1;" d="M 280.039063 482.269531 L 315.394531 482.269531 C 319.292969 482.269531 322.480469 485.460938 322.480469 489.355469 L 322.480469 524.710938 C 322.480469 528.609375 319.292969 531.796875 315.394531 531.796875 L 280.039063 531.796875 C 276.140625 531.796875 272.953125 528.609375 272.953125 524.710938 L 272.953125 489.355469 C 272.953125 485.460938 276.140625 482.269531 280.039063 482.269531 Z M 297.714844 493.386719 C 305.25 493.386719 311.363281 499.5 311.363281 507.035156 C 311.363281 514.570313 305.25 520.679688 297.714844 520.679688 C 290.183594 520.679688 284.070313 514.570313 284.070313 507.035156 C 284.070313 499.5 290.183594 493.386719 297.714844 493.386719 Z M 297.714844 493.386719 "/>
<path style="fill:none;stroke-width:2;stroke-linecap:butt;stroke-linejoin:miter;stroke:rgb(0%,0%,0%);stroke-opacity:1;stroke-miterlimit:4;" d="M 2977.148438 3394.960938 C 3002.1875 3394.960938 3022.460938 3374.6875 3022.460938 3349.648438 C 3022.460938 3324.648438 3002.1875 3304.375 2977.148438 3304.375 C 2952.148438 3304.375 2931.875 3324.648438 2931.875 3349.648438 C 2931.875 3374.6875 2952.148438 3394.960938 2977.148438 3394.960938 Z M 2977.148438 3394.960938 " transform="matrix(0.1,0,0,-0.1,0,842)"/>
<path style="fill:none;stroke-width:19.998;stroke-linecap:butt;stroke-linejoin:miter;stroke:rgb(10.594177%,9.812927%,9.423828%);stroke-opacity:1;stroke-miterlimit:4;" d="M 2977.148438 3564.765625 C 3007.65625 3564.765625 3032.34375 3468.476563 3032.34375 3349.648438 C 3032.34375 3230.859375 3007.65625 3134.570313 2977.148438 3134.570313 C 2946.679688 3134.570313 2921.953125 3230.859375 2921.953125 3349.648438 C 2921.953125 3468.476563 2946.679688 3564.765625 2977.148438 3564.765625 Z M 2977.148438 3564.765625 " transform="matrix(0.1,0,0,-0.1,0,842)"/>
<path style="fill:none;stroke-width:19.998;stroke-linecap:butt;stroke-linejoin:miter;stroke:rgb(10.594177%,9.812927%,9.423828%);stroke-opacity:1;stroke-miterlimit:4;" d="M 3118.710938 3511.640625 C 3141.640625 3491.601563 3096.914063 3402.8125 3018.75 3313.359375 C 2940.546875 3223.867188 2858.59375 3167.617188 2835.625 3187.65625 C 2812.695313 3207.734375 2857.421875 3296.523438 2935.585938 3385.976563 C 3013.75 3475.429688 3095.742188 3531.71875 3118.710938 3511.640625 Z M 3118.710938 3511.640625 " transform="matrix(0.1,0,0,-0.1,0,842)"/>
<path style="fill:none;stroke-width:19.998;stroke-linecap:butt;stroke-linejoin:miter;stroke:rgb(10.594177%,9.812927%,9.423828%);stroke-opacity:1;stroke-miterlimit:4;" d="M 3192.226563 3353.554688 C 3192.773438 3323.085938 3096.953125 3296.640625 2978.164063 3294.492188 C 2859.375 3292.34375 2762.65625 3315.3125 2762.109375 3345.78125 C 2761.523438 3376.25 2857.382813 3402.695313 2976.171875 3404.84375 C 3094.960938 3406.992188 3191.679688 3384.023438 3192.226563 3353.554688 Z M 3192.226563 3353.554688 " transform="matrix(0.1,0,0,-0.1,0,842)"/>
<path style="fill:none;stroke-width:19.998;stroke-linecap:butt;stroke-linejoin:miter;stroke:rgb(10.594177%,9.812927%,9.423828%);stroke-opacity:1;stroke-miterlimit:4;" d="M 3126.289063 3194.609375 C 3104.296875 3173.476563 3019.726563 3225.78125 2937.382813 3311.40625 C 2855.039063 3397.03125 2806.09375 3483.59375 2828.046875 3504.726563 C 2850.039063 3525.820313 2934.609375 3473.554688 3016.953125 3387.929688 C 3099.296875 3302.304688 3148.242188 3215.742188 3126.289063 3194.609375 Z M 3126.289063 3194.609375 " transform="matrix(0.1,0,0,-0.1,0,842)"/>
<path style=" stroke:none;fill-rule:evenodd;fill:rgb(10.594177%,9.812927%,9.423828%);fill-opacity:1;" d="M 190.757813 459.988281 L 202.199219 463.054688 L 203.929688 456.597656 C 204.066406 456.085938 204.300781 455.722656 204.625 455.515625 C 204.949219 455.304688 205.300781 455.253906 205.675781 455.355469 C 206.0625 455.457031 206.339844 455.675781 206.507813 456.011719 C 206.671875 456.347656 206.6875 456.777344 206.546875 457.296875 L 204.488281 464.988281 C 204.300781 465.679688 204.011719 466.140625 203.625 466.363281 C 203.238281 466.582031 202.695313 466.597656 202.011719 466.417969 L 189.90625 463.171875 C 189.265625 463 188.820313 462.722656 188.574219 462.347656 C 188.332031 461.972656 188.273438 461.550781 188.398438 461.078125 C 188.527344 460.601563 188.789063 460.253906 189.1875 460.042969 C 189.582031 459.832031 190.109375 459.8125 190.757813 459.988281 Z M 194.261719 446.574219 L 205.703125 449.640625 L 207.433594 443.183594 C 207.570313 442.671875 207.800781 442.308594 208.125 442.101563 C 208.449219 441.890625 208.800781 441.839844 209.175781 441.941406 C 209.566406 442.042969 209.84375 442.261719 210.007813 442.597656 C 210.175781 442.933594 210.1875 443.363281 210.050781 443.882813 L 207.988281 451.574219 C 207.804688 452.265625 207.515625 452.726563 207.125 452.949219 C 206.738281 453.167969 206.199219 453.183594 205.515625 453.003906 L 193.40625 449.757813 C 192.765625 449.585938 192.320313 449.308594 192.078125 448.933594 C 191.832031 448.558594 191.773438 448.136719 191.902344 447.664063 C 192.027344 447.1875 192.289063 446.839844 192.6875 446.628906 C 193.085938 446.417969 193.613281 446.398438 194.261719 446.574219 Z M 211.597656 429.964844 L 209.421875 430.183594 L 207.710938 436.574219 L 209.527344 437.867188 C 210.238281 438.371094 210.699219 438.765625 210.917969 439.046875 C 211.136719 439.328125 211.183594 439.703125 211.058594 440.175781 C 210.953125 440.574219 210.710938 440.890625 210.335938 441.121094 C 209.960938 441.347656 209.585938 441.414063 209.210938 441.3125 C 209 441.257813 208.785156 441.160156 208.578125 441.027344 C 208.367188 440.894531 208.082031 440.6875 207.71875 440.417969 L 198.585938 433.660156 C 198.328125 433.46875 198.011719 433.234375 197.644531 432.964844 C 197.273438 432.691406 196.976563 432.433594 196.757813 432.175781 C 196.535156 431.921875 196.378906 431.621094 196.289063 431.28125 C 196.203125 430.9375 196.214844 430.550781 196.332031 430.113281 C 196.449219 429.671875 196.632813 429.324219 196.882813 429.074219 C 197.128906 428.820313 197.410156 428.636719 197.722656 428.523438 C 198.035156 428.414063 198.359375 428.335938 198.699219 428.292969 C 199.035156 428.246094 199.484375 428.210938 200.042969 428.140625 L 211.289063 426.753906 C 212.148438 426.648438 212.75 426.628906 213.101563 426.722656 C 213.464844 426.820313 213.757813 427.0625 213.980469 427.449219 C 214.199219 427.832031 214.257813 428.238281 214.140625 428.667969 C 214.074219 428.917969 213.972656 429.121094 213.832031 429.277344 C 213.695313 429.429688 213.535156 429.550781 213.351563 429.628906 C 213.164063 429.707031 212.890625 429.777344 212.535156 429.832031 C 212.179688 429.882813 211.871094 429.929688 211.597656 429.964844 Z M 205.546875 435.101563 L 206.804688 430.402344 L 199.683594 431.035156 Z M 216.125 411.875 C 216.5625 411.492188 217.003906 411.066406 217.445313 410.597656 C 217.890625 410.125 218.226563 409.824219 218.449219 409.691406 C 218.671875 409.558594 218.941406 409.539063 219.265625 409.625 C 219.496094 409.683594 219.695313 409.847656 219.867188 410.125 C 220.039063 410.394531 220.082031 410.683594 220.003906 410.984375 C 219.9375 411.222656 219.78125 411.5 219.53125 411.800781 C 219.28125 412.105469 218.941406 412.453125 218.515625 412.839844 C 218.089844 413.226563 217.605469 413.648438 217.054688 414.101563 C 217.304688 415.277344 217.226563 416.621094 216.824219 418.128906 C 216.496094 419.351563 216.007813 420.394531 215.359375 421.261719 C 214.710938 422.125 213.929688 422.789063 213.019531 423.25 C 212.113281 423.710938 211.109375 423.972656 210.011719 424.035156 C 208.917969 424.101563 207.773438 423.972656 206.589844 423.652344 C 205.382813 423.332031 204.316406 422.859375 203.40625 422.242188 C 202.488281 421.625 201.765625 420.894531 201.234375 420.046875 C 200.703125 419.195313 200.375 418.253906 200.253906 417.210938 C 200.132813 416.164063 200.230469 415.042969 200.550781 413.839844 C 200.988281 412.207031 201.691406 410.898438 202.667969 409.90625 C 203.644531 408.914063 204.820313 408.28125 206.199219 408.007813 C 207.578125 407.734375 209.09375 407.816406 210.738281 408.257813 C 213.230469 408.925781 215.023438 410.132813 216.125 411.875 Z M 213.714844 413.90625 C 213.328125 413.324219 212.816406 412.839844 212.179688 412.441406 C 211.542969 412.046875 210.765625 411.722656 209.851563 411.480469 C 208.699219 411.171875 207.652344 411.089844 206.707031 411.234375 C 205.765625 411.378906 204.984375 411.742188 204.367188 412.316406 C 203.75 412.890625 203.320313 413.621094 203.082031 414.519531 C 202.910156 415.15625 202.871094 415.773438 202.96875 416.378906 C 203.0625 416.980469 203.285156 417.539063 203.640625 418.054688 C 203.992188 418.566406 204.496094 419.03125 205.144531 419.445313 C 205.796875 419.859375 206.570313 420.1875 207.453125 420.425781 C 209.261719 420.910156 210.765625 420.859375 211.96875 420.277344 C 213.171875 419.695313 213.945313 418.761719 214.289063 417.476563 C 214.429688 416.945313 214.46875 416.371094 214.394531 415.753906 C 214.054688 416.023438 213.691406 416.375 213.304688 416.816406 C 212.921875 417.253906 212.636719 417.546875 212.449219 417.695313 C 212.265625 417.84375 212.046875 417.886719 211.796875 417.820313 C 211.582031 417.761719 211.414063 417.617188 211.296875 417.398438 C 211.179688 417.175781 211.152344 416.957031 211.210938 416.738281 C 211.382813 416.09375 212.21875 415.148438 213.714844 413.90625 Z M 208.507813 394.726563 L 207.578125 398.199219 L 219 401.257813 C 219.652344 401.433594 220.105469 401.710938 220.34375 402.089844 C 220.585938 402.46875 220.640625 402.890625 220.515625 403.355469 C 220.390625 403.824219 220.125 404.164063 219.722656 404.375 C 219.324219 404.585938 218.796875 404.605469 218.148438 404.433594 L 206.726563 401.371094 L 205.796875 404.84375 C 205.652344 405.390625 205.421875 405.761719 205.113281 405.960938 C 204.800781 406.164063 204.449219 406.210938 204.054688 406.105469 C 203.648438 405.996094 203.363281 405.769531 203.203125 405.433594 C 203.039063 405.09375 203.03125 404.664063 203.167969 404.140625 L 205.882813 394.019531 C 206.03125 393.46875 206.257813 393.09375 206.578125 392.890625 C 206.890625 392.6875 207.246094 392.636719 207.636719 392.742188 C 208.03125 392.847656 208.3125 393.070313 208.476563 393.40625 C 208.644531 393.738281 208.65625 394.179688 208.507813 394.726563 Z M 223.007813 385.402344 L 220.832031 385.621094 L 219.121094 392.015625 L 220.9375 393.304688 C 221.648438 393.808594 222.109375 394.203125 222.328125 394.484375 C 222.546875 394.765625 222.59375 395.140625 222.46875 395.613281 C 222.363281 396.011719 222.121094 396.328125 221.746094 396.558594 C 221.371094 396.785156 220.996094 396.851563 220.621094 396.75 C 220.410156 396.695313 220.195313 396.597656 219.988281 396.46875 C 219.777344 396.332031 219.492188 396.125 219.128906 395.855469 L 209.996094 389.097656 C 209.738281 388.90625 209.421875 388.671875 209.054688 388.402344 C 208.683594 388.128906 208.386719 387.871094 208.167969 387.613281 C 207.945313 387.359375 207.789063 387.058594 207.699219 386.71875 C 207.613281 386.375 207.625 385.988281 207.742188 385.550781 C 207.859375 385.109375 208.042969 384.761719 208.292969 384.511719 C 208.539063 384.257813 208.820313 384.074219 209.132813 383.960938 C 209.445313 383.851563 209.769531 383.773438 210.109375 383.730469 C 210.445313 383.683594 210.894531 383.648438 211.453125 383.578125 L 222.699219 382.191406 C 223.558594 382.085938 224.160156 382.066406 224.511719 382.160156 C 224.875 382.257813 225.167969 382.5 225.386719 382.886719 C 225.609375 383.269531 225.664063 383.675781 225.550781 384.105469 C 225.484375 384.355469 225.382813 384.558594 225.242188 384.714844 C 225.105469 384.867188 224.945313 384.988281 224.761719 385.066406 C 224.574219 385.144531 224.300781 385.214844 223.945313 385.269531 C 223.589844 385.320313 223.277344 385.367188 223.007813 385.402344 Z M 216.953125 390.539063 L 218.214844 385.839844 L 211.09375 386.472656 Z M 228.3125 372.566406 L 225.703125 362.199219 L 225.703125 373.433594 C 225.703125 374.054688 225.566406 374.523438 225.289063 374.832031 C 225.011719 375.144531 224.644531 375.300781 224.183594 375.300781 C 223.738281 375.300781 223.378906 375.144531 223.09375 374.835938 C 222.8125 374.53125 222.671875 374.0625 222.671875 373.433594 L 222.671875 360.558594 C 222.671875 359.847656 222.859375 359.371094 223.226563 359.117188 C 223.597656 358.871094 224.097656 358.746094 224.726563 358.746094 L 225.75 358.746094 C 226.363281 358.746094 226.808594 358.804688 227.085938 358.914063 C 227.363281 359.023438 227.570313 359.226563 227.703125 359.511719 C 227.835938 359.800781 227.984375 360.269531 228.15625 360.921875 L 230.519531 369.839844 L 232.886719 360.921875 C 233.054688 360.269531 233.207031 359.800781 233.339844 359.511719 C 233.472656 359.226563 233.675781 359.023438 233.957031 358.914063 C 234.234375 358.804688 234.683594 358.746094 235.296875 358.746094 L 236.316406 358.746094 C 236.945313 358.746094 237.445313 358.871094 237.816406 359.117188 C 238.183594 359.371094 238.367188 359.847656 238.367188 360.558594 L 238.367188 373.433594 C 238.367188 374.054688 238.226563 374.523438 237.953125 374.832031 C 237.675781 375.144531 237.304688 375.300781 236.835938 375.300781 C 236.398438 375.300781 236.042969 375.144531 235.757813 374.832031 C 235.476563 374.523438 235.335938 374.054688 235.335938 373.433594 L 235.335938 362.199219 L 232.730469 372.566406 C 232.558594 373.242188 232.417969 373.734375 232.3125 374.050781 C 232.207031 374.363281 232.007813 374.652344 231.71875 374.910156 C 231.429688 375.171875 231.03125 375.300781 230.519531 375.300781 C 230.132813 375.300781 229.8125 375.214844 229.542969 375.050781 C 229.277344 374.882813 229.070313 374.671875 228.921875 374.414063 C 228.773438 374.152344 228.65625 373.867188 228.574219 373.550781 C 228.488281 373.238281 228.402344 372.910156 228.3125 372.566406 Z M 252.167969 373.175781 L 251.390625 371.136719 L 244.777344 371.136719 L 244 373.222656 C 243.691406 374.039063 243.433594 374.585938 243.21875 374.871094 C 243.007813 375.15625 242.652344 375.300781 242.164063 375.300781 C 241.753906 375.300781 241.386719 375.148438 241.066406 374.84375 C 240.75 374.542969 240.589844 374.195313 240.589844 373.808594 C 240.589844 373.589844 240.628906 373.359375 240.699219 373.125 C 240.773438 372.886719 240.894531 372.554688 241.066406 372.136719 L 245.230469 361.566406 C 245.347656 361.265625 245.492188 360.898438 245.660156 360.476563 C 245.824219 360.046875 246 359.695313 246.191406 359.414063 C 246.378906 359.132813 246.628906 358.90625 246.9375 358.734375 C 247.242188 358.558594 247.621094 358.472656 248.074219 358.472656 C 248.53125 358.472656 248.914063 358.558594 249.222656 358.734375 C 249.527344 358.90625 249.777344 359.128906 249.96875 359.402344 C 250.152344 359.675781 250.3125 359.972656 250.445313 360.285156 C 250.574219 360.601563 250.738281 361.019531 250.9375 361.542969 L 255.1875 372.046875 C 255.523438 372.847656 255.691406 373.425781 255.691406 373.792969 C 255.691406 374.167969 255.53125 374.511719 255.214844 374.824219 C 254.902344 375.140625 254.523438 375.300781 254.078125 375.300781 C 253.820313 375.300781 253.597656 375.253906 253.414063 375.160156 C 253.226563 375.070313 253.070313 374.945313 252.945313 374.785156 C 252.820313 374.625 252.683594 374.378906 252.539063 374.050781 C 252.398438 373.71875 252.273438 373.429688 252.167969 373.175781 Z M 245.640625 368.660156 L 250.503906 368.660156 L 248.050781 361.945313 Z M 262.40625 360.449219 L 268.742188 370.039063 L 268.742188 360.359375 C 268.742188 359.730469 268.875 359.257813 269.144531 358.945313 C 269.414063 358.628906 269.777344 358.472656 270.242188 358.472656 C 270.714844 358.472656 271.085938 358.625 271.363281 358.941406 C 271.636719 359.253906 271.773438 359.730469 271.773438 360.359375 L 271.773438 373.160156 C 271.773438 374.585938 271.179688 375.300781 269.996094 375.300781 C 269.699219 375.300781 269.433594 375.257813 269.195313 375.171875 C 268.960938 375.085938 268.738281 374.949219 268.527344 374.765625 C 268.324219 374.582031 268.128906 374.363281 267.953125 374.117188 C 267.773438 373.871094 267.59375 373.617188 267.417969 373.355469 L 261.238281 363.878906 L 261.238281 373.414063 C 261.238281 374.035156 261.09375 374.503906 260.804688 374.820313 C 260.515625 375.140625 260.144531 375.300781 259.695313 375.300781 C 259.230469 375.300781 258.855469 375.140625 258.574219 374.820313 C 258.292969 374.496094 258.152344 374.027344 258.152344 373.414063 L 258.152344 360.859375 C 258.152344 360.324219 258.214844 359.90625 258.332031 359.605469 C 258.472656 359.269531 258.703125 358.996094 259.027344 358.785156 C 259.355469 358.578125 259.707031 358.472656 260.085938 358.472656 C 260.382813 358.472656 260.632813 358.519531 260.84375 358.613281 C 261.054688 358.710938 261.242188 358.84375 261.398438 359.003906 C 261.558594 359.167969 261.71875 359.375 261.886719 359.636719 C 262.050781 359.894531 262.226563 360.164063 262.40625 360.449219 Z M 285.953125 361.46875 L 282.355469 361.46875 L 282.355469 373.292969 C 282.355469 373.96875 282.203125 374.476563 281.902344 374.808594 C 281.597656 375.136719 281.203125 375.300781 280.722656 375.300781 C 280.238281 375.300781 279.839844 375.132813 279.53125 374.800781 C 279.226563 374.464844 279.070313 373.960938 279.070313 373.292969 L 279.070313 361.46875 L 275.472656 361.46875 C 274.910156 361.46875 274.492188 361.34375 274.21875 361.097656 C 273.941406 360.847656 273.804688 360.519531 273.804688 360.113281 C 273.804688 359.691406 273.949219 359.359375 274.234375 359.117188 C 274.519531 358.867188 274.933594 358.746094 275.472656 358.746094 L 285.953125 358.746094 C 286.523438 358.746094 286.945313 358.871094 287.226563 359.125 C 287.5 359.375 287.640625 359.707031 287.640625 360.113281 C 287.640625 360.519531 287.496094 360.847656 287.21875 361.097656 C 286.9375 361.34375 286.515625 361.46875 285.953125 361.46875 Z M 298.574219 373.175781 L 297.796875 371.136719 L 291.179688 371.136719 L 290.402344 373.222656 C 290.097656 374.039063 289.839844 374.585938 289.625 374.871094 C 289.410156 375.15625 289.058594 375.300781 288.570313 375.300781 C 288.15625 375.300781 287.789063 375.148438 287.472656 374.84375 C 287.152344 374.542969 286.992188 374.195313 286.992188 373.808594 C 286.992188 373.589844 287.03125 373.359375 287.101563 373.125 C 287.179688 372.886719 287.300781 372.554688 287.472656 372.136719 L 291.636719 361.566406 C 291.753906 361.265625 291.898438 360.898438 292.0625 360.476563 C 292.230469 360.046875 292.40625 359.695313 292.59375 359.414063 C 292.785156 359.132813 293.035156 358.90625 293.339844 358.734375 C 293.648438 358.558594 294.027344 358.472656 294.476563 358.472656 C 294.9375 358.472656 295.320313 358.558594 295.625 358.734375 C 295.933594 358.90625 296.183594 359.128906 296.371094 359.402344 C 296.558594 359.675781 296.71875 359.972656 296.851563 360.285156 C 296.980469 360.601563 297.140625 361.019531 297.34375 361.542969 L 301.59375 372.046875 C 301.925781 372.847656 302.09375 373.425781 302.09375 373.792969 C 302.09375 374.167969 301.933594 374.511719 301.621094 374.824219 C 301.304688 375.140625 300.925781 375.300781 300.484375 375.300781 C 300.226563 375.300781 300.003906 375.253906 299.816406 375.160156 C 299.632813 375.070313 299.476563 374.945313 299.351563 374.785156 C 299.226563 374.625 299.089844 374.378906 298.945313 374.050781 C 298.800781 373.71875 298.675781 373.429688 298.574219 373.175781 Z M 292.042969 368.660156 L 296.910156 368.660156 L 294.453125 361.945313 Z M 319.109375 360.46875 L 319.109375 372.3125 L 325.792969 372.3125 C 326.324219 372.3125 326.734375 372.441406 327.015625 372.703125 C 327.304688 372.960938 327.445313 373.289063 327.445313 373.675781 C 327.445313 374.078125 327.304688 374.402344 327.023438 374.652344 C 326.742188 374.898438 326.332031 375.023438 325.792969 375.023438 L 317.832031 375.023438 C 317.117188 375.023438 316.597656 374.863281 316.28125 374.546875 C 315.96875 374.226563 315.8125 373.710938 315.8125 373.003906 L 315.8125 360.46875 C 315.8125 359.804688 315.964844 359.304688 316.261719 358.972656 C 316.5625 358.636719 316.957031 358.472656 317.445313 358.472656 C 317.9375 358.472656 318.339844 358.632813 318.644531 358.964844 C 318.953125 359.292969 319.109375 359.796875 319.109375 360.46875 Z M 332.839844 360.46875 L 332.839844 372.3125 L 339.527344 372.3125 C 340.054688 372.3125 340.464844 372.441406 340.75 372.703125 C 341.039063 372.960938 341.175781 373.289063 341.175781 373.675781 C 341.175781 374.078125 341.039063 374.402344 340.757813 374.652344 C 340.476563 374.898438 340.0625 375.023438 339.527344 375.023438 L 331.5625 375.023438 C 330.847656 375.023438 330.328125 374.863281 330.015625 374.546875 C 329.699219 374.226563 329.542969 373.710938 329.542969 373.003906 L 329.542969 360.46875 C 329.542969 359.804688 329.695313 359.304688 329.996094 358.972656 C 330.292969 358.636719 330.6875 358.472656 331.175781 358.472656 C 331.671875 358.472656 332.070313 358.632813 332.378906 358.964844 C 332.6875 359.292969 332.839844 359.796875 332.839844 360.46875 Z M 353.460938 373.175781 L 352.683594 371.136719 L 346.066406 371.136719 L 345.289063 373.222656 C 344.980469 374.039063 344.722656 374.585938 344.507813 374.871094 C 344.296875 375.15625 343.945313 375.300781 343.453125 375.300781 C 343.042969 375.300781 342.675781 375.148438 342.355469 374.84375 C 342.039063 374.542969 341.878906 374.195313 341.878906 373.808594 C 341.878906 373.589844 341.917969 373.359375 341.988281 373.125 C 342.0625 372.886719 342.1875 372.554688 342.355469 372.136719 L 346.519531 361.566406 C 346.636719 361.265625 346.78125 360.898438 346.949219 360.476563 C 347.117188 360.046875 347.289063 359.695313 347.480469 359.414063 C 347.667969 359.132813 347.917969 358.90625 348.226563 358.734375 C 348.53125 358.558594 348.910156 358.472656 349.363281 358.472656 C 349.820313 358.472656 350.203125 358.558594 350.511719 358.734375 C 350.816406 358.90625 351.066406 359.128906 351.257813 359.402344 C 351.441406 359.675781 351.601563 359.972656 351.734375 360.285156 C 351.863281 360.601563 352.027344 361.019531 352.226563 361.542969 L 356.480469 372.046875 C 356.8125 372.847656 356.980469 373.425781 356.980469 373.792969 C 356.980469 374.167969 356.820313 374.511719 356.503906 374.824219 C 356.191406 375.140625 355.8125 375.300781 355.367188 375.300781 C 355.109375 375.300781 354.886719 375.253906 354.703125 375.160156 C 354.515625 375.070313 354.359375 374.945313 354.234375 374.785156 C 354.109375 374.625 353.972656 374.378906 353.832031 374.050781 C 353.6875 373.71875 353.5625 373.429688 353.460938 373.175781 Z M 346.929688 368.660156 L 351.796875 368.660156 L 349.339844 361.945313 Z M 372.1875 373.003906 C 372.667969 373.328125 373.195313 373.644531 373.761719 373.949219 C 374.335938 374.257813 374.710938 374.503906 374.894531 374.6875 C 375.082031 374.863281 375.171875 375.121094 375.171875 375.457031 C 375.171875 375.695313 375.066406 375.929688 374.847656 376.167969 C 374.625 376.402344 374.359375 376.519531 374.050781 376.519531 C 373.800781 376.519531 373.492188 376.441406 373.136719 376.277344 C 372.777344 376.113281 372.355469 375.875 371.871094 375.566406 C 371.386719 375.253906 370.855469 374.894531 370.277344 374.476563 C 369.203125 375.027344 367.886719 375.300781 366.324219 375.300781 C 365.058594 375.300781 363.925781 375.097656 362.921875 374.691406 C 361.917969 374.292969 361.074219 373.710938 360.394531 372.949219 C 359.710938 372.191406 359.199219 371.289063 358.855469 370.25 C 358.511719 369.207031 358.339844 368.070313 358.339844 366.84375 C 358.339844 365.589844 358.519531 364.441406 358.878906 363.402344 C 359.238281 362.355469 359.757813 361.46875 360.4375 360.738281 C 361.121094 360.003906 361.945313 359.441406 362.925781 359.054688 C 363.902344 358.664063 365.011719 358.472656 366.253906 358.472656 C 367.945313 358.472656 369.394531 358.8125 370.605469 359.5 C 371.816406 360.183594 372.730469 361.152344 373.351563 362.414063 C 373.972656 363.679688 374.285156 365.164063 374.285156 366.863281 C 374.285156 369.445313 373.585938 371.492188 372.1875 373.003906 Z M 369.597656 371.203125 C 370.058594 370.679688 370.398438 370.058594 370.617188 369.339844 C 370.832031 368.621094 370.941406 367.789063 370.941406 366.84375 C 370.941406 365.648438 370.75 364.617188 370.367188 363.742188 C 369.980469 362.871094 369.429688 362.207031 368.714844 361.761719 C 368.003906 361.3125 367.183594 361.089844 366.253906 361.089844 C 365.597656 361.089844 364.988281 361.214844 364.429688 361.460938 C 363.871094 361.710938 363.390625 362.070313 362.984375 362.542969 C 362.582031 363.019531 362.265625 363.625 362.03125 364.359375 C 361.800781 365.09375 361.683594 365.925781 361.683594 366.84375 C 361.683594 368.714844 362.117188 370.152344 362.992188 371.164063 C 363.863281 372.175781 364.96875 372.679688 366.300781 372.679688 C 366.851563 372.679688 367.410156 372.566406 367.992188 372.335938 C 367.640625 372.078125 367.207031 371.816406 366.683594 371.558594 C 366.160156 371.300781 365.804688 371.101563 365.609375 370.960938 C 365.421875 370.820313 365.324219 370.621094 365.324219 370.363281 C 365.324219 370.136719 365.417969 369.941406 365.601563 369.769531 C 365.785156 369.601563 365.992188 369.515625 366.214844 369.515625 C 366.886719 369.515625 368.015625 370.078125 369.597656 371.203125 Z M 384.523438 390.257813 L 383.589844 386.785156 L 372.171875 389.84375 C 371.515625 390.019531 370.984375 390.003906 370.589844 389.796875 C 370.191406 389.589844 369.933594 389.25 369.808594 388.785156 C 369.683594 388.316406 369.742188 387.890625 369.984375 387.507813 C 370.226563 387.125 370.671875 386.84375 371.320313 386.671875 L 382.742188 383.609375 L 381.808594 380.136719 C 381.664063 379.589844 381.675781 379.15625 381.84375 378.828125 C 382.015625 378.496094 382.292969 378.28125 382.6875 378.175781 C 383.09375 378.066406 383.453125 378.121094 383.761719 378.332031 C 384.074219 378.542969 384.296875 378.910156 384.4375 379.433594 L 387.148438 389.554688 C 387.296875 390.105469 387.285156 390.546875 387.113281 390.882813 C 386.945313 391.214844 386.660156 391.433594 386.269531 391.539063 C 385.875 391.644531 385.523438 391.589844 385.207031 391.382813 C 384.898438 391.179688 384.667969 390.804688 384.523438 390.257813 Z M 376.398438 405.414063 L 378.171875 404.136719 L 376.460938 397.746094 L 374.242188 397.535156 C 373.375 397.453125 372.777344 397.34375 372.449219 397.207031 C 372.117188 397.074219 371.886719 396.773438 371.761719 396.300781 C 371.65625 395.902344 371.707031 395.507813 371.917969 395.121094 C 372.125 394.738281 372.417969 394.492188 372.792969 394.394531 C 373.003906 394.335938 373.238281 394.3125 373.480469 394.324219 C 373.734375 394.332031 374.082031 394.371094 374.53125 394.421875 L 385.820313 395.707031 C 386.140625 395.746094 386.53125 395.789063 386.984375 395.839844 C 387.441406 395.890625 387.828125 395.96875 388.148438 396.078125 C 388.464844 396.1875 388.75 396.371094 389 396.621094 C 389.246094 396.875 389.429688 397.21875 389.546875 397.652344 C 389.664063 398.09375 389.679688 398.488281 389.589844 398.828125 C 389.5 399.171875 389.351563 399.472656 389.136719 399.722656 C 388.921875 399.976563 388.675781 400.207031 388.40625 400.414063 C 388.136719 400.621094 387.765625 400.878906 387.320313 401.214844 L 378.273438 408.039063 C 377.582031 408.5625 377.070313 408.878906 376.71875 408.976563 C 376.355469 409.070313 375.980469 409.007813 375.597656 408.785156 C 375.210938 408.5625 374.960938 408.238281 374.84375 407.808594 C 374.777344 407.5625 374.765625 407.332031 374.808594 407.128906 C 374.847656 406.925781 374.929688 406.742188 375.050781 406.582031 C 375.171875 406.417969 375.375 406.222656 375.65625 406 C 375.933594 405.777344 376.179688 405.582031 376.398438 405.414063 Z M 379.074219 397.941406 L 380.332031 402.640625 L 386.183594 398.53125 Z M 383.753906 416.210938 L 382.972656 413.292969 L 378.523438 414.488281 C 377.886719 414.65625 377.367188 414.636719 376.957031 414.421875 C 376.546875 414.210938 376.277344 413.875 376.15625 413.417969 C 376.03125 412.941406 376.085938 412.511719 376.332031 412.128906 C 376.582031 411.75 377.019531 411.476563 377.648438 411.308594 L 389.765625 408.058594 C 390.464844 407.875 391.011719 407.898438 391.394531 408.140625 C 391.78125 408.382813 392.070313 408.851563 392.257813 409.554688 L 393.351563 413.640625 C 393.675781 414.847656 393.828125 415.796875 393.820313 416.5 C 393.8125 417.191406 393.667969 417.828125 393.378906 418.40625 C 393.085938 418.988281 392.675781 419.476563 392.140625 419.878906 C 391.605469 420.285156 390.960938 420.589844 390.210938 420.789063 C 388.609375 421.21875 387.261719 421.050781 386.171875 420.285156 C 385.082031 419.519531 384.277344 418.160156 383.753906 416.210938 Z M 390.753906 413.507813 L 390.179688 411.363281 L 385.375 412.652344 L 385.949219 414.796875 C 386.148438 415.542969 386.394531 416.152344 386.6875 416.613281 C 386.976563 417.074219 387.339844 417.390625 387.769531 417.558594 C 388.195313 417.730469 388.703125 417.734375 389.28125 417.578125 C 389.976563 417.390625 390.492188 417.042969 390.8125 416.511719 C 391.164063 415.933594 391.136719 414.925781 390.753906 413.507813 Z M 383.636719 434.0625 L 385.410156 432.785156 L 383.699219 426.394531 L 381.480469 426.183594 C 380.613281 426.101563 380.015625 425.988281 379.683594 425.855469 C 379.355469 425.722656 379.125 425.421875 379 424.949219 C 378.894531 424.550781 378.945313 424.15625 379.152344 423.769531 C 379.363281 423.386719 379.65625 423.140625 380.03125 423.042969 C 380.242188 422.984375 380.476563 422.960938 380.71875 422.96875 C 380.96875 422.980469 381.320313 423.019531 381.769531 423.070313 L 393.058594 424.355469 C 393.378906 424.390625 393.769531 424.4375 394.222656 424.488281 C 394.679688 424.539063 395.066406 424.613281 395.382813 424.726563 C 395.703125 424.835938 395.988281 425.019531 396.234375 425.269531 C 396.484375 425.519531 396.667969 425.863281 396.785156 426.300781 C 396.902344 426.742188 396.917969 427.136719 396.828125 427.476563 C 396.738281 427.820313 396.589844 428.121094 396.375 428.371094 C 396.160156 428.621094 395.914063 428.851563 395.644531 429.0625 C 395.375 429.269531 395.003906 429.527344 394.554688 429.863281 L 385.511719 436.6875 C 384.820313 437.210938 384.308594 437.527344 383.957031 437.621094 C 383.59375 437.71875 383.21875 437.65625 382.835938 437.433594 C 382.449219 437.210938 382.195313 436.886719 382.082031 436.457031 C 382.015625 436.207031 382.003906 435.980469 382.046875 435.777344 C 382.085938 435.574219 382.167969 435.390625 382.289063 435.230469 C 382.40625 435.066406 382.613281 434.871094 382.890625 434.648438 C 383.171875 434.421875 383.417969 434.226563 383.636719 434.0625 Z M 386.3125 426.585938 L 387.570313 431.289063 L 393.421875 427.175781 Z M 388.5 452.0625 C 388.308594 452.613281 388.140625 453.203125 387.992188 453.832031 C 387.84375 454.460938 387.703125 454.886719 387.578125 455.117188 C 387.453125 455.339844 387.226563 455.496094 386.90625 455.582031 C 386.675781 455.644531 386.417969 455.601563 386.132813 455.449219 C 385.847656 455.300781 385.667969 455.074219 385.585938 454.773438 C 385.523438 454.53125 385.519531 454.214844 385.585938 453.828125 C 385.648438 453.4375 385.769531 452.96875 385.945313 452.421875 C 386.117188 451.875 386.328125 451.265625 386.582031 450.597656 C 385.773438 449.707031 385.167969 448.503906 384.765625 446.996094 C 384.4375 445.773438 384.339844 444.625 384.46875 443.550781 C 384.597656 442.476563 384.941406 441.515625 385.5 440.660156 C 386.054688 439.804688 386.792969 439.074219 387.710938 438.472656 C 388.628906 437.871094 389.683594 437.410156 390.867188 437.09375 C 392.074219 436.769531 393.230469 436.644531 394.332031 436.722656 C 395.433594 436.800781 396.425781 437.074219 397.308594 437.542969 C 398.195313 438.011719 398.949219 438.664063 399.578125 439.507813 C 400.207031 440.351563 400.679688 441.371094 401.003906 442.574219 C 401.441406 444.207031 401.484375 445.691406 401.136719 447.039063 C 400.789063 448.386719 400.085938 449.523438 399.027344 450.449219 C 397.972656 451.375 396.617188 452.0625 394.972656 452.5 C 392.480469 453.167969 390.324219 453.023438 388.5 452.0625 Z M 389.570313 449.097656 C 390.195313 449.40625 390.882813 449.574219 391.632813 449.597656 C 392.382813 449.625 393.214844 449.511719 394.128906 449.269531 C 395.28125 448.957031 396.230469 448.507813 396.976563 447.910156 C 397.71875 447.3125 398.214844 446.605469 398.460938 445.800781 C 398.707031 444.996094 398.714844 444.148438 398.472656 443.25 C 398.304688 442.613281 398.027344 442.058594 397.640625 441.582031 C 397.257813 441.109375 396.785156 440.734375 396.222656 440.46875 C 395.660156 440.203125 394.992188 440.050781 394.222656 440.015625 C 393.453125 439.980469 392.617188 440.085938 391.734375 440.320313 C 389.925781 440.804688 388.648438 441.601563 387.894531 442.707031 C 387.144531 443.8125 386.941406 445.007813 387.289063 446.296875 C 387.429688 446.824219 387.683594 447.339844 388.058594 447.839844 C 388.21875 447.433594 388.355469 446.945313 388.472656 446.375 C 388.585938 445.800781 388.6875 445.40625 388.773438 445.183594 C 388.855469 444.964844 389.027344 444.816406 389.277344 444.75 C 389.492188 444.691406 389.707031 444.730469 389.917969 444.863281 C 390.132813 445 390.265625 445.175781 390.320313 445.390625 C 390.496094 446.039063 390.246094 447.277344 389.570313 449.097656 Z M 389.570313 449.097656 "/>
<path style=" stroke:none;fill-rule:evenodd;fill:rgb(10.594177%,9.812927%,9.423828%);fill-opacity:1;" d="M 154.5625 662.015625 L 154.5625 643.125 C 154.5625 642.148438 154.710938 641.410156 155.003906 640.917969 C 155.296875 640.429688 155.675781 640.183594 156.140625 640.183594 C 156.621094 640.183594 157.007813 640.421875 157.304688 640.910156 C 157.601563 641.394531 157.753906 642.136719 157.753906 643.125 L 157.753906 662.015625 C 157.753906 663.003906 157.601563 663.746094 157.304688 664.238281 C 157.007813 664.730469 156.621094 664.976563 156.140625 664.976563 C 155.683594 664.976563 155.304688 664.730469 155.007813 664.234375 C 154.710938 663.734375 154.5625 663 154.5625 662.015625 Z M 174.734375 656.996094 C 174.734375 657.757813 174.617188 658.582031 174.367188 659.46875 C 174.121094 660.363281 173.730469 661.234375 173.199219 662.089844 C 172.671875 662.941406 171.992188 663.640625 171.171875 664.171875 C 170.347656 664.707031 169.386719 664.976563 168.289063 664.976563 C 167.460938 664.976563 166.707031 664.859375 166.023438 664.617188 C 165.34375 664.378906 164.726563 664.003906 164.171875 663.496094 C 163.617188 662.988281 163.105469 662.324219 162.640625 661.492188 C 162.226563 660.742188 161.871094 659.902344 161.578125 658.96875 C 161.28125 658.035156 161.0625 657.035156 160.917969 655.980469 C 160.769531 654.925781 160.695313 653.796875 160.695313 652.617188 C 160.695313 650.683594 160.878906 648.953125 161.25 647.429688 C 161.621094 645.898438 162.148438 644.597656 162.835938 643.511719 C 163.523438 642.425781 164.328125 641.601563 165.25 641.03125 C 166.175781 640.46875 167.160156 640.183594 168.207031 640.183594 C 169.480469 640.183594 170.613281 640.566406 171.613281 641.34375 C 172.605469 642.121094 173.367188 643.074219 173.898438 644.214844 C 174.429688 645.351563 174.695313 646.429688 174.695313 647.445313 C 174.695313 648 174.5625 648.488281 174.308594 648.914063 C 174.050781 649.339844 173.738281 649.550781 173.371094 649.550781 C 172.964844 649.550781 172.65625 649.40625 172.457031 649.109375 C 172.25 648.820313 172.023438 648.3125 171.773438 647.589844 C 171.355469 646.402344 170.867188 645.515625 170.308594 644.921875 C 169.742188 644.335938 169.050781 644.039063 168.226563 644.039063 C 166.914063 644.039063 165.875 644.800781 165.097656 646.3125 C 164.320313 647.832031 163.929688 649.984375 163.929688 652.777344 C 163.929688 654.640625 164.101563 656.195313 164.449219 657.425781 C 164.789063 658.667969 165.277344 659.59375 165.90625 660.203125 C 166.539063 660.8125 167.273438 661.117188 168.121094 661.117188 C 169.039063 661.117188 169.8125 660.773438 170.445313 660.078125 C 171.082031 659.386719 171.558594 658.371094 171.878906 657.027344 C 172.015625 656.394531 172.183594 655.882813 172.386719 655.484375 C 172.582031 655.082031 172.90625 654.886719 173.351563 654.886719 C 173.730469 654.886719 174.058594 655.089844 174.328125 655.488281 C 174.601563 655.890625 174.734375 656.394531 174.734375 656.996094 Z M 187.679688 661.847656 L 186.929688 658.839844 L 180.527344 658.839844 L 179.773438 661.917969 C 179.476563 663.117188 179.226563 663.925781 179.019531 664.34375 C 178.8125 664.761719 178.472656 664.976563 178 664.976563 C 177.601563 664.976563 177.246094 664.753906 176.9375 664.304688 C 176.628906 663.859375 176.472656 663.351563 176.472656 662.78125 C 176.472656 662.457031 176.511719 662.117188 176.582031 661.769531 C 176.652344 661.417969 176.769531 660.933594 176.9375 660.3125 L 180.964844 644.742188 C 181.078125 644.296875 181.21875 643.761719 181.378906 643.136719 C 181.542969 642.503906 181.710938 641.984375 181.894531 641.574219 C 182.078125 641.160156 182.320313 640.824219 182.617188 640.566406 C 182.914063 640.3125 183.28125 640.183594 183.714844 640.183594 C 184.160156 640.183594 184.53125 640.3125 184.828125 640.566406 C 185.125 640.824219 185.367188 641.152344 185.550781 641.554688 C 185.730469 641.957031 185.882813 642.394531 186.011719 642.855469 C 186.136719 643.320313 186.292969 643.941406 186.488281 644.710938 L 190.601563 660.183594 C 190.925781 661.363281 191.085938 662.21875 191.085938 662.753906 C 191.085938 663.304688 190.933594 663.8125 190.628906 664.277344 C 190.324219 664.742188 189.957031 664.976563 189.527344 664.976563 C 189.277344 664.976563 189.0625 664.910156 188.882813 664.769531 C 188.703125 664.632813 188.550781 664.449219 188.429688 664.214844 C 188.308594 663.980469 188.179688 663.617188 188.039063 663.132813 C 187.898438 662.648438 187.777344 662.222656 187.679688 661.847656 Z M 181.363281 655.195313 L 186.070313 655.195313 L 183.695313 645.300781 Z M 202.136719 643.125 L 202.136719 649.996094 L 209.023438 649.996094 L 209.023438 643.125 C 209.023438 642.148438 209.167969 641.410156 209.460938 640.917969 C 209.75 640.429688 210.128906 640.183594 210.601563 640.183594 C 211.082031 640.183594 211.46875 640.421875 211.765625 640.910156 C 212.0625 641.394531 212.214844 642.136719 212.214844 643.125 L 212.214844 662.015625 C 212.214844 663.003906 212.0625 663.746094 211.761719 664.238281 C 211.460938 664.730469 211.074219 664.976563 210.601563 664.976563 C 210.125 664.976563 209.738281 664.730469 209.453125 664.234375 C 209.167969 663.734375 209.023438 663 209.023438 662.015625 L 209.023438 653.953125 L 202.136719 653.953125 L 202.136719 662.015625 C 202.136719 663.011719 201.988281 663.746094 201.6875 664.238281 C 201.386719 664.730469 200.996094 664.976563 200.527344 664.976563 C 200.046875 664.976563 199.664063 664.730469 199.375 664.234375 C 199.089844 663.734375 198.945313 663 198.945313 662.015625 L 198.945313 643.125 C 198.945313 642.148438 199.089844 641.410156 199.371094 640.917969 C 199.65625 640.429688 200.039063 640.183594 200.527344 640.183594 C 201.003906 640.183594 201.394531 640.421875 201.691406 640.910156 C 201.988281 641.394531 202.136719 642.136719 202.136719 643.125 Z M 225.71875 661.847656 L 224.964844 658.839844 L 218.5625 658.839844 L 217.8125 661.917969 C 217.515625 663.117188 217.265625 663.925781 217.058594 664.34375 C 216.851563 664.761719 216.511719 664.976563 216.039063 664.976563 C 215.636719 664.976563 215.28125 664.753906 214.972656 664.304688 C 214.664063 663.859375 214.511719 663.351563 214.511719 662.78125 C 214.511719 662.457031 214.546875 662.117188 214.617188 661.769531 C 214.691406 661.417969 214.808594 660.933594 214.972656 660.3125 L 219.003906 644.742188 C 219.117188 644.296875 219.257813 643.761719 219.417969 643.136719 C 219.578125 642.503906 219.746094 641.984375 219.929688 641.574219 C 220.113281 641.160156 220.355469 640.824219 220.652344 640.566406 C 220.949219 640.3125 221.316406 640.183594 221.753906 640.183594 C 222.199219 640.183594 222.566406 640.3125 222.863281 640.566406 C 223.160156 640.824219 223.402344 641.152344 223.585938 641.554688 C 223.765625 641.957031 223.921875 642.394531 224.050781 642.855469 C 224.171875 643.320313 224.332031 643.941406 224.527344 644.710938 L 228.640625 660.183594 C 228.960938 661.363281 229.125 662.21875 229.125 662.753906 C 229.125 663.304688 228.96875 663.8125 228.664063 664.277344 C 228.359375 664.742188 227.996094 664.976563 227.566406 664.976563 C 227.316406 664.976563 227.097656 664.910156 226.917969 664.769531 C 226.738281 664.632813 226.589844 664.449219 226.46875 664.214844 C 226.347656 663.980469 226.214844 663.617188 226.078125 663.132813 C 225.9375 662.648438 225.816406 662.222656 225.71875 661.847656 Z M 219.398438 655.195313 L 224.109375 655.195313 L 221.730469 645.300781 Z M 239.757813 644.597656 L 236.277344 644.597656 L 236.277344 662.015625 C 236.277344 663.015625 236.128906 663.765625 235.835938 664.25 C 235.542969 664.734375 235.164063 664.976563 234.695313 664.976563 C 234.226563 664.976563 233.84375 664.730469 233.546875 664.238281 C 233.25 663.746094 233.097656 663.003906 233.097656 662.015625 L 233.097656 644.597656 L 229.617188 644.597656 C 229.074219 644.597656 228.667969 644.414063 228.40625 644.050781 C 228.136719 643.683594 228.003906 643.203125 228.003906 642.601563 C 228.003906 641.980469 228.144531 641.488281 228.417969 641.132813 C 228.695313 640.769531 229.09375 640.589844 229.617188 640.589844 L 239.757813 640.589844 C 240.308594 640.589844 240.71875 640.773438 240.988281 641.148438 C 241.257813 641.515625 241.390625 642.003906 241.390625 642.601563 C 241.390625 643.203125 241.253906 643.683594 240.980469 644.050781 C 240.710938 644.414063 240.304688 644.597656 239.757813 644.597656 Z M 243.300781 654.660156 L 243.300781 643.125 C 243.300781 642.148438 243.449219 641.410156 243.738281 640.917969 C 244.027344 640.429688 244.410156 640.183594 244.882813 640.183594 C 245.375 640.183594 245.765625 640.429688 246.054688 640.917969 C 246.34375 641.410156 246.492188 642.148438 246.492188 643.125 L 246.492188 654.921875 C 246.492188 656.261719 246.589844 657.382813 246.789063 658.28125 C 246.984375 659.179688 247.332031 659.878906 247.835938 660.375 C 248.335938 660.871094 249.039063 661.117188 249.9375 661.117188 C 251.1875 661.117188 252.066406 660.617188 252.582031 659.605469 C 253.101563 658.59375 253.355469 657.066406 253.355469 655.015625 L 253.355469 643.125 C 253.355469 642.136719 253.5 641.394531 253.785156 640.910156 C 254.070313 640.421875 254.457031 640.183594 254.9375 640.183594 C 255.414063 640.183594 255.800781 640.421875 256.097656 640.910156 C 256.394531 641.394531 256.546875 642.136719 256.546875 643.125 L 256.546875 654.660156 C 256.546875 656.535156 256.425781 658.097656 256.1875 659.347656 C 255.945313 660.605469 255.496094 661.703125 254.828125 662.652344 C 254.253906 663.460938 253.585938 664.046875 252.828125 664.417969 C 252.070313 664.789063 251.183594 664.976563 250.167969 664.976563 C 248.957031 664.976563 247.914063 664.773438 247.039063 664.378906 C 246.167969 663.980469 245.453125 663.363281 244.902344 662.53125 C 244.351563 661.699219 243.949219 660.625 243.6875 659.324219 C 243.429688 658.023438 243.300781 656.46875 243.300781 654.660156 Z M 264.15625 643.097656 L 270.285156 657.226563 L 270.285156 642.960938 C 270.285156 642.035156 270.417969 641.34375 270.679688 640.878906 C 270.9375 640.417969 271.289063 640.183594 271.738281 640.183594 C 272.195313 640.183594 272.554688 640.410156 272.824219 640.875 C 273.085938 641.339844 273.21875 642.035156 273.21875 642.960938 L 273.21875 661.820313 C 273.21875 663.925781 272.648438 664.976563 271.5 664.976563 C 271.214844 664.976563 270.957031 664.914063 270.726563 664.785156 C 270.496094 664.664063 270.28125 664.460938 270.078125 664.1875 C 269.882813 663.921875 269.695313 663.597656 269.523438 663.234375 C 269.351563 662.871094 269.179688 662.496094 269.003906 662.113281 L 263.027344 648.148438 L 263.027344 662.195313 C 263.027344 663.109375 262.886719 663.804688 262.605469 664.273438 C 262.328125 664.742188 261.96875 664.976563 261.53125 664.976563 C 261.082031 664.976563 260.71875 664.742188 260.449219 664.265625 C 260.175781 663.792969 260.039063 663.097656 260.039063 662.195313 L 260.039063 643.699219 C 260.039063 642.914063 260.097656 642.296875 260.214844 641.851563 C 260.347656 641.359375 260.574219 640.957031 260.886719 640.644531 C 261.203125 640.339844 261.542969 640.183594 261.910156 640.183594 C 262.195313 640.183594 262.4375 640.253906 262.644531 640.394531 C 262.847656 640.535156 263.027344 640.730469 263.183594 640.96875 C 263.335938 641.210938 263.492188 641.515625 263.652344 641.902344 C 263.8125 642.28125 263.980469 642.679688 264.15625 643.097656 Z M 285.726563 662.015625 L 285.726563 654.414063 L 281.878906 645.335938 C 281.542969 644.515625 281.304688 643.878906 281.164063 643.421875 C 281.023438 642.960938 280.957031 642.566406 280.957031 642.226563 C 280.957031 641.671875 281.097656 641.191406 281.378906 640.785156 C 281.664063 640.382813 282.011719 640.183594 282.429688 640.183594 C 282.867188 640.183594 283.195313 640.371094 283.421875 640.746094 C 283.648438 641.121094 283.984375 641.875 284.433594 642.996094 L 287.378906 650.269531 L 290.355469 642.996094 C 290.53125 642.550781 290.683594 642.167969 290.808594 641.867188 C 290.929688 641.5625 291.0625 641.277344 291.207031 641.007813 C 291.359375 640.742188 291.519531 640.535156 291.699219 640.394531 C 291.878906 640.253906 292.09375 640.183594 292.355469 640.183594 C 292.753906 640.183594 293.089844 640.382813 293.355469 640.78125 C 293.628906 641.175781 293.757813 641.640625 293.757813 642.160156 C 293.757813 642.589844 293.695313 643.011719 293.558594 643.4375 C 293.421875 643.859375 293.1875 644.453125 292.855469 645.203125 L 288.914063 654.414063 L 288.914063 662.015625 C 288.914063 663.003906 288.765625 663.746094 288.464844 664.238281 C 288.164063 664.730469 287.777344 664.976563 287.316406 664.976563 C 286.84375 664.976563 286.460938 664.734375 286.164063 664.25 C 285.871094 663.765625 285.726563 663.015625 285.726563 662.015625 Z M 304.652344 661.847656 L 303.902344 658.839844 L 297.5 658.839844 L 296.746094 661.917969 C 296.449219 663.117188 296.203125 663.925781 295.992188 664.34375 C 295.785156 664.761719 295.445313 664.976563 294.972656 664.976563 C 294.574219 664.976563 294.21875 664.753906 293.910156 664.304688 C 293.601563 663.859375 293.449219 663.351563 293.449219 662.78125 C 293.449219 662.457031 293.484375 662.117188 293.554688 661.769531 C 293.628906 661.417969 293.746094 660.933594 293.910156 660.3125 L 297.9375 644.742188 C 298.054688 644.296875 298.191406 643.761719 298.355469 643.136719 C 298.515625 642.503906 298.683594 641.984375 298.867188 641.574219 C 299.050781 641.160156 299.292969 640.824219 299.589844 640.566406 C 299.886719 640.3125 300.253906 640.183594 300.691406 640.183594 C 301.132813 640.183594 301.503906 640.3125 301.800781 640.566406 C 302.097656 640.824219 302.339844 641.152344 302.523438 641.554688 C 302.703125 641.957031 302.855469 642.394531 302.984375 642.855469 C 303.109375 643.320313 303.265625 643.941406 303.460938 644.710938 L 307.574219 660.183594 C 307.898438 661.363281 308.058594 662.21875 308.058594 662.753906 C 308.058594 663.304688 307.90625 663.8125 307.601563 664.277344 C 307.296875 664.742188 306.929688 664.976563 306.5 664.976563 C 306.25 664.976563 306.035156 664.910156 305.855469 664.769531 C 305.675781 664.632813 305.527344 664.449219 305.40625 664.214844 C 305.285156 663.980469 305.152344 663.617188 305.011719 663.132813 C 304.875 662.648438 304.753906 662.222656 304.652344 661.847656 Z M 298.335938 655.195313 L 303.042969 655.195313 L 300.667969 645.300781 Z M 323.269531 656.996094 C 323.269531 657.757813 323.148438 658.582031 322.898438 659.46875 C 322.652344 660.363281 322.265625 661.234375 321.734375 662.089844 C 321.203125 662.941406 320.527344 663.640625 319.703125 664.171875 C 318.878906 664.707031 317.917969 664.976563 316.824219 664.976563 C 315.992188 664.976563 315.238281 664.859375 314.558594 664.617188 C 313.878906 664.378906 313.257813 664.003906 312.707031 663.496094 C 312.152344 662.988281 311.636719 662.324219 311.171875 661.492188 C 310.757813 660.742188 310.402344 659.902344 310.109375 658.96875 C 309.816406 658.035156 309.59375 657.035156 309.449219 655.980469 C 309.300781 654.925781 309.230469 653.796875 309.230469 652.617188 C 309.230469 650.683594 309.414063 648.953125 309.78125 647.429688 C 310.152344 645.898438 310.679688 644.597656 311.367188 643.511719 C 312.054688 642.425781 312.859375 641.601563 313.78125 641.03125 C 314.707031 640.46875 315.695313 640.183594 316.738281 640.183594 C 318.015625 640.183594 319.148438 640.566406 320.144531 641.34375 C 321.136719 642.121094 321.902344 643.074219 322.433594 644.214844 C 322.960938 645.351563 323.226563 646.429688 323.226563 647.445313 C 323.226563 648 323.097656 648.488281 322.839844 648.914063 C 322.582031 649.339844 322.269531 649.550781 321.90625 649.550781 C 321.496094 649.550781 321.191406 649.40625 320.988281 649.109375 C 320.78125 648.820313 320.554688 648.3125 320.304688 647.589844 C 319.886719 646.402344 319.402344 645.515625 318.839844 644.921875 C 318.273438 644.335938 317.582031 644.039063 316.761719 644.039063 C 315.449219 644.039063 314.40625 644.800781 313.628906 646.3125 C 312.851563 647.832031 312.464844 649.984375 312.464844 652.777344 C 312.464844 654.640625 312.636719 656.195313 312.980469 657.425781 C 313.320313 658.667969 313.808594 659.59375 314.4375 660.203125 C 315.070313 660.8125 315.808594 661.117188 316.652344 661.117188 C 317.570313 661.117188 318.34375 660.773438 318.980469 660.078125 C 319.613281 659.386719 320.089844 658.371094 320.414063 657.027344 C 320.546875 656.394531 320.714844 655.882813 320.917969 655.484375 C 321.117188 655.082031 321.4375 654.886719 321.882813 654.886719 C 322.265625 654.886719 322.589844 655.089844 322.863281 655.488281 C 323.132813 655.890625 323.269531 656.394531 323.269531 656.996094 Z M 329.347656 643.125 L 329.347656 649.996094 L 336.234375 649.996094 L 336.234375 643.125 C 336.234375 642.148438 336.378906 641.410156 336.671875 640.917969 C 336.960938 640.429688 337.339844 640.183594 337.8125 640.183594 C 338.292969 640.183594 338.679688 640.421875 338.976563 640.910156 C 339.273438 641.394531 339.425781 642.136719 339.425781 643.125 L 339.425781 662.015625 C 339.425781 663.003906 339.273438 663.746094 338.972656 664.238281 C 338.671875 664.730469 338.285156 664.976563 337.8125 664.976563 C 337.335938 664.976563 336.949219 664.730469 336.664063 664.234375 C 336.378906 663.734375 336.234375 663 336.234375 662.015625 L 336.234375 653.953125 L 329.347656 653.953125 L 329.347656 662.015625 C 329.347656 663.011719 329.199219 663.746094 328.898438 664.238281 C 328.597656 664.730469 328.207031 664.976563 327.738281 664.976563 C 327.257813 664.976563 326.875 664.730469 326.585938 664.234375 C 326.300781 663.734375 326.15625 663 326.15625 662.015625 L 326.15625 643.125 C 326.15625 642.148438 326.300781 641.410156 326.582031 640.917969 C 326.867188 640.429688 327.25 640.183594 327.738281 640.183594 C 328.214844 640.183594 328.605469 640.421875 328.902344 640.910156 C 329.199219 641.394531 329.347656 642.136719 329.347656 643.125 Z M 352.929688 661.847656 L 352.175781 658.839844 L 345.773438 658.839844 L 345.023438 661.917969 C 344.726563 663.117188 344.476563 663.925781 344.269531 664.34375 C 344.0625 664.761719 343.722656 664.976563 343.25 664.976563 C 342.847656 664.976563 342.492188 664.753906 342.183594 664.304688 C 341.878906 663.859375 341.722656 663.351563 341.722656 662.78125 C 341.722656 662.457031 341.757813 662.117188 341.828125 661.769531 C 341.902344 661.417969 342.019531 660.933594 342.183594 660.3125 L 346.214844 644.742188 C 346.328125 644.296875 346.46875 643.761719 346.628906 643.136719 C 346.789063 642.503906 346.957031 641.984375 347.140625 641.574219 C 347.324219 641.160156 347.566406 640.824219 347.863281 640.566406 C 348.160156 640.3125 348.527344 640.183594 348.964844 640.183594 C 349.410156 640.183594 349.777344 640.3125 350.074219 640.566406 C 350.371094 640.824219 350.613281 641.152344 350.796875 641.554688 C 350.976563 641.957031 351.132813 642.394531 351.261719 642.855469 C 351.382813 643.320313 351.542969 643.941406 351.738281 644.710938 L 355.851563 660.183594 C 356.171875 661.363281 356.335938 662.21875 356.335938 662.753906 C 356.335938 663.304688 356.179688 663.8125 355.875 664.277344 C 355.570313 664.742188 355.207031 664.976563 354.777344 664.976563 C 354.527344 664.976563 354.3125 664.910156 354.132813 664.769531 C 353.949219 664.632813 353.800781 664.449219 353.679688 664.214844 C 353.558594 663.980469 353.425781 663.617188 353.289063 663.132813 C 353.148438 662.648438 353.027344 662.222656 352.929688 661.847656 Z M 346.609375 655.195313 L 351.320313 655.195313 L 348.941406 645.300781 Z M 360.800781 662.015625 L 360.800781 654.414063 L 356.953125 645.335938 C 356.617188 644.515625 356.378906 643.878906 356.238281 643.421875 C 356.101563 642.960938 356.03125 642.566406 356.03125 642.226563 C 356.03125 641.671875 356.171875 641.191406 356.457031 640.785156 C 356.738281 640.382813 357.085938 640.183594 357.503906 640.183594 C 357.941406 640.183594 358.269531 640.371094 358.496094 640.746094 C 358.722656 641.121094 359.058594 641.875 359.511719 642.996094 L 362.453125 650.269531 L 365.433594 642.996094 C 365.609375 642.550781 365.757813 642.167969 365.882813 641.867188 C 366.003906 641.5625 366.136719 641.277344 366.28125 641.007813 C 366.433594 640.742188 366.59375 640.535156 366.773438 640.394531 C 366.953125 640.253906 367.167969 640.183594 367.429688 640.183594 C 367.828125 640.183594 368.164063 640.382813 368.429688 640.78125 C 368.703125 641.175781 368.835938 641.640625 368.835938 642.160156 C 368.835938 642.589844 368.769531 643.011719 368.632813 643.4375 C 368.496094 643.859375 368.261719 644.453125 367.933594 645.203125 L 363.992188 654.414063 L 363.992188 662.015625 C 363.992188 663.003906 363.839844 663.746094 363.539063 664.238281 C 363.238281 664.730469 362.855469 664.976563 362.390625 664.976563 C 361.917969 664.976563 361.535156 664.734375 361.242188 664.25 C 360.949219 663.765625 360.800781 663.015625 360.800781 662.015625 Z M 379.75 643.125 L 379.75 649.996094 L 386.636719 649.996094 L 386.636719 643.125 C 386.636719 642.148438 386.78125 641.410156 387.074219 640.917969 C 387.363281 640.429688 387.742188 640.183594 388.214844 640.183594 C 388.691406 640.183594 389.082031 640.421875 389.378906 640.910156 C 389.675781 641.394531 389.824219 642.136719 389.824219 643.125 L 389.824219 662.015625 C 389.824219 663.003906 389.675781 663.746094 389.375 664.238281 C 389.074219 664.730469 388.6875 664.976563 388.214844 664.976563 C 387.734375 664.976563 387.351563 664.730469 387.066406 664.234375 C 386.777344 663.734375 386.636719 663 386.636719 662.015625 L 386.636719 653.953125 L 379.75 653.953125 L 379.75 662.015625 C 379.75 663.011719 379.597656 663.746094 379.300781 664.238281 C 379 664.730469 378.609375 664.976563 378.140625 664.976563 C 377.660156 664.976563 377.273438 664.730469 376.988281 664.234375 C 376.703125 663.734375 376.558594 663 376.558594 662.015625 L 376.558594 643.125 C 376.558594 642.148438 376.703125 641.410156 376.984375 640.917969 C 377.269531 640.429688 377.652344 640.183594 378.140625 640.183594 C 378.617188 640.183594 379.003906 640.421875 379.304688 640.910156 C 379.597656 641.394531 379.75 642.136719 379.75 643.125 Z M 393.277344 654.660156 L 393.277344 643.125 C 393.277344 642.148438 393.421875 641.410156 393.710938 640.917969 C 394.003906 640.429688 394.382813 640.183594 394.855469 640.183594 C 395.347656 640.183594 395.742188 640.429688 396.03125 640.917969 C 396.320313 641.410156 396.464844 642.148438 396.464844 643.125 L 396.464844 654.921875 C 396.464844 656.261719 396.566406 657.382813 396.761719 658.28125 C 396.957031 659.179688 397.304688 659.878906 397.808594 660.375 C 398.308594 660.871094 399.011719 661.117188 399.914063 661.117188 C 401.160156 661.117188 402.039063 660.617188 402.554688 659.605469 C 403.074219 658.59375 403.332031 657.066406 403.332031 655.015625 L 403.332031 643.125 C 403.332031 642.136719 403.472656 641.394531 403.757813 640.910156 C 404.046875 640.421875 404.429688 640.183594 404.910156 640.183594 C 405.386719 640.183594 405.777344 640.421875 406.074219 640.910156 C 406.371094 641.394531 406.519531 642.136719 406.519531 643.125 L 406.519531 654.660156 C 406.519531 656.535156 406.398438 658.097656 406.160156 659.347656 C 405.917969 660.605469 405.46875 661.703125 404.800781 662.652344 C 404.230469 663.460938 403.5625 664.046875 402.800781 664.417969 C 402.042969 664.789063 401.15625 664.976563 400.140625 664.976563 C 398.929688 664.976563 397.890625 664.773438 397.011719 664.378906 C 396.140625 663.980469 395.429688 663.363281 394.875 662.53125 C 394.324219 661.699219 393.921875 660.625 393.660156 659.324219 C 393.40625 658.023438 393.277344 656.46875 393.277344 654.660156 Z M 418.949219 661.847656 L 418.199219 658.839844 L 411.796875 658.839844 L 411.042969 661.917969 C 410.746094 663.117188 410.5 663.925781 410.289063 664.34375 C 410.082031 664.761719 409.742188 664.976563 409.269531 664.976563 C 408.871094 664.976563 408.515625 664.753906 408.207031 664.304688 C 407.898438 663.859375 407.746094 663.351563 407.746094 662.78125 C 407.746094 662.457031 407.78125 662.117188 407.851563 661.769531 C 407.925781 661.417969 408.042969 660.933594 408.207031 660.3125 L 412.234375 644.742188 C 412.351563 644.296875 412.488281 643.761719 412.652344 643.136719 C 412.8125 642.503906 412.980469 641.984375 413.164063 641.574219 C 413.347656 641.160156 413.589844 640.824219 413.886719 640.566406 C 414.183594 640.3125 414.550781 640.183594 414.988281 640.183594 C 415.429688 640.183594 415.800781 640.3125 416.097656 640.566406 C 416.394531 640.824219 416.636719 641.152344 416.820313 641.554688 C 417 641.957031 417.152344 642.394531 417.28125 642.855469 C 417.40625 643.320313 417.5625 643.941406 417.757813 644.710938 L 421.871094 660.183594 C 422.195313 661.363281 422.355469 662.21875 422.355469 662.753906 C 422.355469 663.304688 422.203125 663.8125 421.898438 664.277344 C 421.59375 664.742188 421.226563 664.976563 420.796875 664.976563 C 420.546875 664.976563 420.332031 664.910156 420.152344 664.769531 C 419.972656 664.632813 419.824219 664.449219 419.703125 664.214844 C 419.582031 663.980469 419.449219 663.617188 419.308594 663.132813 C 419.171875 662.648438 419.050781 662.222656 418.949219 661.847656 Z M 412.632813 655.195313 L 417.339844 655.195313 L 414.964844 645.300781 Z M 436.660156 657.367188 C 436.660156 658.816406 436.414063 660.125 435.921875 661.28125 C 435.433594 662.433594 434.714844 663.339844 433.769531 663.992188 C 432.824219 664.644531 431.707031 664.976563 430.410156 664.976563 C 428.851563 664.976563 427.574219 664.527344 426.5625 663.636719 C 425.847656 662.988281 425.265625 662.132813 424.816406 661.054688 C 424.367188 659.984375 424.144531 658.941406 424.144531 657.925781 C 424.144531 657.339844 424.28125 656.832031 424.550781 656.410156 C 424.816406 655.992188 425.15625 655.78125 425.574219 655.78125 C 425.914063 655.78125 426.195313 655.949219 426.429688 656.273438 C 426.660156 656.601563 426.859375 657.085938 427.023438 657.730469 C 427.226563 658.492188 427.441406 659.128906 427.675781 659.644531 C 427.90625 660.152344 428.238281 660.574219 428.660156 660.910156 C 429.082031 661.242188 429.632813 661.40625 430.324219 661.40625 C 431.269531 661.40625 432.035156 661.074219 432.625 660.402344 C 433.21875 659.734375 433.515625 658.894531 433.515625 657.890625 C 433.515625 657.097656 433.355469 656.449219 433.039063 655.953125 C 432.71875 655.457031 432.304688 655.078125 431.800781 654.820313 C 431.296875 654.558594 430.621094 654.277344 429.773438 653.984375 C 428.644531 653.582031 427.695313 653.105469 426.933594 652.570313 C 426.167969 652.027344 425.566406 651.292969 425.117188 650.359375 C 424.667969 649.425781 424.445313 648.273438 424.445313 646.886719 C 424.445313 645.570313 424.679688 644.398438 425.152344 643.371094 C 425.625 642.347656 426.3125 641.5625 427.207031 641.007813 C 428.101563 640.457031 429.15625 640.183594 430.363281 640.183594 C 431.332031 640.183594 432.167969 640.367188 432.871094 640.730469 C 433.578125 641.097656 434.164063 641.578125 434.628906 642.1875 C 435.09375 642.789063 435.433594 643.425781 435.652344 644.089844 C 435.863281 644.753906 435.972656 645.402344 435.972656 646.039063 C 435.972656 646.613281 435.839844 647.132813 435.570313 647.597656 C 435.304688 648.058594 434.964844 648.292969 434.566406 648.292969 C 434.199219 648.292969 433.925781 648.15625 433.734375 647.875 C 433.542969 647.601563 433.339844 647.144531 433.117188 646.511719 C 432.828125 645.609375 432.488281 644.898438 432.082031 644.390625 C 431.683594 643.882813 431.039063 643.632813 430.152344 643.632813 C 429.328125 643.632813 428.664063 643.90625 428.160156 644.460938 C 427.65625 645.011719 427.402344 645.671875 427.402344 646.445313 C 427.402344 646.925781 427.484375 647.339844 427.65625 647.6875 C 427.832031 648.039063 428.070313 648.339844 428.371094 648.589844 C 428.671875 648.835938 428.972656 649.035156 429.28125 649.175781 C 429.589844 649.316406 430.097656 649.523438 430.808594 649.796875 C 431.695313 650.113281 432.5 650.460938 433.21875 650.84375 C 433.9375 651.226563 434.546875 651.6875 435.054688 652.234375 C 435.558594 652.777344 435.953125 653.46875 436.234375 654.300781 C 436.515625 655.140625 436.660156 656.160156 436.660156 657.367188 Z M 439.496094 662.015625 L 439.496094 643.125 C 439.496094 642.148438 439.644531 641.410156 439.9375 640.917969 C 440.230469 640.429688 440.613281 640.183594 441.078125 640.183594 C 441.554688 640.183594 441.945313 640.421875 442.242188 640.910156 C 442.539063 641.394531 442.6875 642.136719 442.6875 643.125 L 442.6875 662.015625 C 442.6875 663.003906 442.539063 663.746094 442.242188 664.238281 C 441.945313 664.730469 441.554688 664.976563 441.078125 664.976563 C 440.621094 664.976563 440.242188 664.730469 439.945313 664.234375 C 439.648438 663.734375 439.496094 663 439.496094 662.015625 Z M 439.496094 662.015625 "/>
</g>
</svg>
